<svg height="450pt" preserveAspectRatio="xMidYMid meet" viewBox="0 0 450 450" width="450pt" xmlns="http://www.w3.org/2000/svg"><g transform="matrix(.1 0 0 -.1 0 450)"><path d="m1925 4038c-2-7-22-83-45-168-22-85-56-211-75-280-20-69-41-159-46-200-20-138 6-340 58-448 33-67 112-151 171-181 52-26 145-51 193-51h37l6-62c3-35 8-295 11-578l6-515-40 104c-74 190-155 315-283 441l-79 78 12 61c43 219-50 395-263 496-182 86-196 88-600 93-269 3-358 1-358-8 0-7 20-35 43-63 58-69 101-135 236-360 127-212 209-321 276-367 195-134 429-130 565 11l45 47 39-31c51-41 145-159 195-245 112-194 182-481 180-742-1-131-7-152-43-161-33-9-106-58-106-71 0-6-22-7-54-3-68 9-147-13-198-55-40-33-88-120-88-160 0-22-6-28-42-37-76-20-166-99-142-123 7-7 255-9 720-8l709 3-2 33c-3 81-119 192-200 192-28 0-37 7-67 55-20 30-52 65-73 79-47 31-123 50-168 43-25-4-41 0-61 15-14 12-42 27-62 33-36 13-36 13-33 66 6 131 55 338 108 460 66 152 173 306 261 376l40 32 25-33c55-72 181-126 292-126 94 0 220 45 304 109 60 45 145 163 276 380 116 194 228 359 254 375 6 4 11 14 11 22 0 12-48 14-317 14-403 0-459-9-653-102-103-49-183-126-225-213-24-50-29-76-32-155-3-60 1-111 9-139l13-44-74-71c-91-88-144-157-208-268l-50-87-8 517c-5 284-9 559-9 610l-1 94 48 18c201 76 288 358 181 586-37 80-109 168-295 361-94 98-202 220-241 271-38 50-71 92-74 92s-6-6-9-12zm93-152c19-23 105-115 191-206 206-216 221-233 270-310 56-86 75-155 75-260-1-143-59-254-164-317-83-51-84-50-98 76-7 59-19 130-26 156-25 82-70 109-101 61-14-22-15-28-2-53 17-32 47-197 47-255 0-44-2-45-102-24-84 18-119 36-181 94-96 91-139 225-139 437 0 130-5 108 108 518l49 178 20-27c11-15 35-45 53-68zm-612-1114c96-29 216-84 274-127 57-42 112-120 135-194 13-41 16-75 12-136-7-121-8-121-97-69-78 46-110 53-130 30-26-32-7-58 78-110 45-28 82-55 82-60 0-22-92-95-144-115-80-30-198-29-287 3-150 52-213 123-409 451-98 165-191 305-214 324-9 7-16 18-16 23 0 6 120 8 323 6 293-4 328-7 393-26zm2404-226c0-3-24-37-54-76-29-39-106-160-171-268-204-341-266-409-421-462-80-28-204-27-280 1-52 20-144 93-144 115 0 5 37 32 83 60 59 35 83 56 85 72 4 29-14 52-41 52-21 0-119-51-150-78-21-19-26-14-38 35-22 94-2 216 47 294 71 113 241 207 439 244 65 12 645 22 645 11zm-1520-1667c31-7 48-15 44-21-4-7-2-8 5-4 6 4 25-3 42-15 25-17 46-22 104-23 64-1 79-5 117-31 26-19 54-51 71-83 23-42 33-52 54-52 68 0 181-65 169-97-3-8-2-12 3-9 7 4 31-34 31-49 0-3-62-5-137-5-88 0-133 4-123 9 8 6 17 8 20 6 4-2 7 1 7 8s4 24 7 38c6 20 2 33-16 54-32 37-74 37-106 0-27-32-24-69 10-97 19-17-3-18-491-18-344 0-510 3-506 10 10 16 77 48 117 55 34 6 36 9 42 54 11 85 99 189 149 177 10-2 14 0 11 6-5 7 18 9 71 6 78-5 79-5 112 28 18 18 54 40 81 48 59 18 52 18 112 5z"/><path d="m2485 756c-13-13-26-21-29-19-6 6 7-39 19-69 4-10 16-20 27-24 29-9 78-11 72-3-4 8 21 31 27 24 3-2 4 8 3 23s-3 32-3 39c-2 21-43 53-68 53-13 0-35-11-48-24z"/><path d="m2297 660c-24-19-27-29-26-66 2-24 5-42 7-39 3 2 14-2 26-10 30-21 53-18 81 10 64 63-18 160-88 105z"/></g></svg>